<svg xmlns="http://www.w3.org/2000/svg" width="106" height="103" viewBox="0 0 106 103" version="1.1"><path d="M 31.514 1.366 C 29.736 2.666, 30.375 4.751, 44.942 45.116 C 53.355 68.427, 61.074 89.446, 62.095 91.824 C 63.119 94.206, 64.412 95.863, 64.976 95.515 C 65.585 95.138, 66 89.867, 66 82.500 C 66 75.587, 66.428 69.853, 66.969 69.519 C 67.502 69.190, 72.565 68.673, 78.219 68.370 C 83.874 68.068, 90.001 67.363, 91.836 66.805 C 93.670 66.246, 96.697 64.449, 98.561 62.812 C 100.426 61.175, 102.410 58.185, 102.970 56.168 C 103.530 54.150, 103.991 44.902, 103.994 35.616 C 103.998 25.138, 103.533 17.170, 102.770 14.616 C 102.076 12.294, 99.788 8.748, 97.520 6.480 C 95.252 4.212, 91.706 1.924, 89.384 1.230 C 86.587 0.394, 76.955 -0, 59.325 -0 C 38.976 -0, 32.980 0.295, 31.514 1.366 M 23.472 2.250 C 23.216 2.938, 18.506 16.278, 13.006 31.894 L 3.005 60.289 7.063 73.199 C 9.453 80.805, 11.738 86.346, 12.623 86.686 C 13.450 87.003, 17.360 86.866, 21.313 86.381 C 27.496 85.623, 28.500 85.225, 28.500 83.532 C 28.500 81.994, 27.515 81.373, 24 80.693 C 21.525 80.215, 19.151 79.491, 18.723 79.085 C 18.296 78.679, 19.571 73.656, 21.556 67.923 C 23.542 62.191, 25.521 57.130, 25.955 56.678 C 26.389 56.226, 28.014 59.376, 29.566 63.678 C 31.118 67.980, 34.676 77.800, 37.473 85.500 L 42.557 99.500 52.279 99.786 C 60.872 100.039, 62 99.875, 62 98.373 C 62 97.439, 54.292 75.710, 44.871 50.087 C 35.450 24.464, 27.527 2.938, 27.264 2.250 C 27.001 1.563, 26.145 1, 25.362 1 C 24.578 1, 23.728 1.563, 23.472 2.250 M 64 34.481 L 64 46.962 66.507 47.591 C 67.885 47.937, 70.610 47.920, 72.562 47.554 C 74.514 47.188, 76.986 46.014, 78.056 44.944 C 79.652 43.348, 80 41.591, 80 35.135 C 80 28.692, 79.625 26.793, 77.927 24.635 C 76.105 22.318, 75.140 22, 69.927 22 L 64 22 64 34.481" stroke="none" fill="#ffffff" fill-rule="evenodd"/></svg>